# xmcd
#
# Track frame offsets:
#	150
#	16372
#	33739
#	49242
#	72545
#	90772
#	111325
#	128488
#	147153
#	166150
#	182452
#	198344
#	224050
#	238298
#	254153
#	274946
#	300866
#	317341
#
# Disc length: 4504 seconds
#
# Revision: 6
# Processed by: cddbd v1.5.2PL0 Copyright (c) Steve Scherf et al.
# Submitted via: dBpowerAMP V4.0
#
DISCID=04119612
DTITLE=Rolling Stones, The - Jump Back
DYEAR=1993
DGENRE=Rock
TTITLE0=Start Me Up
TTITLE1=Brown Sugar
TTITLE2=Harlem Shuffle
TTITLE3=It's Only Rock 'N Roll
TTITLE4=Mixed Emotions
TTITLE5=Angie
TTITLE6=Tumbling Dice
TTITLE7=Fool To Cry
TTITLE8=Rock And A Hard Place
TTITLE9=Miss You
TTITLE10=Hot Stuff
TTITLE11=Emotional Rescue
TTITLE12=Respectable
TTITLE13=Beast Of Burden
TTITLE14=Waiting On A Friend
TTITLE15=Wild Horses
TTITLE16=Bitch
TTITLE17=Undercover Of The Night
EXTD=
EXTT0=
EXTT1=
EXTT2=
EXTT3=
EXTT4=
EXTT5=
EXTT6=
EXTT7=
EXTT8=
EXTT9=
EXTT10=
EXTT11=
EXTT12=
EXTT13=
EXTT14=
EXTT15=
EXTT16=
EXTT17=
PLAYORDER=
